<?xml version="1.0" standalone="no"?>
<!DOCTYPE svg PUBLIC "-//W3C//DTD SVG 20010904//EN"
 "http://www.w3.org/TR/2001/REC-SVG-20010904/DTD/svg10.dtd">
<svg version="1.0" xmlns="http://www.w3.org/2000/svg"
 width="871.000000pt" height="871.000000pt" viewBox="0 0 871.000000 871.000000"
 preserveAspectRatio="xMidYMid meet">
<metadata>
Created by potrace 1.11, written by Peter Selinger 2001-2013
</metadata>
<g transform="translate(0.000000,871.000000) scale(0.100000,-0.100000)"
fill="#000000" stroke="none">
<path d="M4295 8686 c-96 -56 -294 -170 -335 -193 -25 -14 -70 -40 -100 -58
-53 -32 -459 -266 -550 -317 -25 -14 -175 -101 -335 -193 -159 -92 -310 -179
-334 -193 -24 -13 -157 -90 -295 -170 -138 -80 -264 -152 -281 -160 -16 -9
-33 -20 -36 -25 -3 -5 -9 -8 -13 -8 -3 1 -16 -5 -29 -13 -12 -7 -98 -58 -192
-111 -190 -109 -463 -266 -912 -525 l-303 -174 0 -2191 0 -2190 63 -35 c34
-19 70 -39 79 -45 9 -5 29 -17 45 -26 15 -8 125 -71 243 -139 118 -68 235
-134 260 -148 25 -14 62 -36 82 -49 21 -12 40 -23 42 -23 2 0 50 -27 106 -60
56 -33 104 -60 107 -60 3 0 17 -8 31 -18 15 -11 52 -32 82 -49 30 -17 287
-163 570 -325 283 -162 535 -306 560 -320 25 -14 100 -57 168 -96 68 -40 127
-72 132 -72 6 0 10 -4 10 -10 0 -5 4 -10 9 -10 5 0 253 -140 552 -311 299
-171 567 -324 594 -339 l50 -28 225 130 c124 72 250 144 280 161 30 16 60 33
65 37 6 4 27 17 48 29 42 23 517 297 702 404 66 38 145 83 175 100 30 16 60
33 65 37 6 4 26 17 45 28 19 10 94 53 165 94 72 41 297 171 500 288 204 117
487 280 630 363 143 82 276 159 295 170 30 17 379 217 435 249 11 7 44 25 73
41 50 27 52 30 52 70 3 254 1 4340 -2 4342 -4 5 -153 90 -873 503 -302 173
-566 323 -585 334 -19 10 -51 28 -70 40 -19 11 -60 34 -90 51 -30 17 -84 48
-119 69 -34 21 -65 38 -67 38 -2 0 -41 22 -86 49 -82 48 -121 70 -208 119 -25
14 -119 68 -210 120 -91 52 -185 106 -210 120 -25 14 -182 104 -349 199 -166
96 -324 186 -350 200 -25 14 -50 29 -56 33 -5 4 -30 18 -55 32 -25 14 -121 69
-215 123 -226 130 -235 135 -238 135 -1 -1 -20 -11 -42 -24z"/>
</g>
</svg>
