<svg width="755" height="871" viewBox="0 0 755 871" version="1.1" xmlns="http://www.w3.org/2000/svg" xmlns:xlink="http://www.w3.org/1999/xlink">
<title>Component 2</title>
<desc>Created using Figma</desc>
<g id="Canvas" transform="translate(543 661)">
<g id="Component 2">
<g id="Component">
<g id="Canvas">
<g id="Component">
<g id="standard">
<g id="logo">
<g id="template">
<g id="Vector">
<use xlink:href="#path0_fill" transform="translate(-543 -661)" fill="#FCE561"/>
</g>
</g>
</g>
<g id="Vector">
<use xlink:href="#path1_fill" transform="translate(53 -371)" fill="#333430"/>
</g>
</g>
</g>
<g id="Vector">
<use xlink:href="#path2_fill" transform="translate(-470 -371)" fill="#333430"/>
</g>
</g>
</g>
<g id="101">
<use xlink:href="#path3_fill" transform="translate(-385 -376)" fill="#333430"/>
</g>
</g>
</g>
<defs>
<path id="path0_fill" fill-rule="evenodd" d="M 0 216.435L 375.822 0L 754.167 216.435L 754.167 654.398L 378.344 870.833L 5.68434e-14 654.398L 0 216.435Z"/>
<path id="path1_fill" d="M 6.88583 272.735L 0 301.061C 43.7425 313.391 68.6108 295.375 68.6108 266.464C 68.6108 242.496 64.4 219.166 64.4 199.183C 64.4 181.858 71.2859 169.847 85.3548 166.18L 85.3548 138.545C 71.2859 134.878 64.4 122.868 64.4 105.543C 64.4 85.5602 68.6108 62.2298 68.6108 38.2616C 68.6108 8.60692 43.7425 -7.70846 0 3.61133L 6.88583 31.9374C 29.624 22.9028 34.132 35.9232 34.132 43.576C 34.132 63.6647 30.2184 83.5407 30.2184 100.866C 30.2184 120.21 33.7357 138.545 54.9877 152.522C 33.488 166.606 30.2184 184.834 30.2184 203.807C 30.2184 221.132 34.132 241.114 34.132 261.097C 34.132 268.749 29.6735 281.717 6.88583 272.735Z"/>
<path id="path2_fill" d="M 0 166.239C 14.0689 169.904 20.9548 181.91 20.9548 199.228C 20.9548 219.042 16.7936 242.523 16.744 266.428C 16.744 295.379 41.6123 313.388 85.3548 301.064L 78.4689 272.749C 55.7307 281.78 51.2228 268.765 51.2228 261.115C 51.2228 241.035 55.1363 221.167 55.1363 203.849C 55.1363 184.46 51.9163 166.929 30.3671 152.586C 51.8173 138.137 55.1363 120.607 55.1363 100.951C 55.1363 83.6334 51.2228 63.6594 51.2228 43.6853C 51.2228 36.0357 55.6812 23.0738 78.4689 32.0515L 85.3548 3.73726C 41.5132 -7.89655 16.744 8.73077 16.744 38.3731C 16.744 62.3313 20.9548 85.6521 20.9548 105.626C 20.9548 122.944 14.0689 134.95 0 138.615L 0 166.239Z"/>
<path id="path3_fill" d="M 105.715 247L 65.7324 247L 65.7324 137.532C 65.7324 135.289 65.7324 132.615 65.7324 129.51C 65.8187 126.318 65.9049 123.04 65.9912 119.676C 66.1637 116.225 66.2931 112.775 66.3794 109.324C 66.5519 105.874 66.6813 102.725 66.7676 99.8784C 66.3363 100.396 65.603 101.172 64.5679 102.208C 63.5327 103.243 62.3682 104.407 61.0742 105.701C 59.7803 106.909 58.4432 108.16 57.063 109.454C 55.6828 110.748 54.3457 111.912 53.0518 112.947L 31.3135 130.416L 11.9043 106.348L 72.8491 57.8252L 105.715 57.8252L 105.715 247ZM 283.762 152.413C 283.762 167.681 282.555 181.311 280.139 193.301C 277.81 205.292 274.014 215.471 268.752 223.838C 263.577 232.206 256.848 238.589 248.567 242.989C 240.372 247.388 230.452 249.588 218.806 249.588C 207.851 249.588 198.319 247.388 190.21 242.989C 182.101 238.589 175.373 232.206 170.024 223.838C 164.676 215.471 160.665 205.292 157.991 193.301C 155.403 181.311 154.109 167.681 154.109 152.413C 154.109 137.144 155.273 123.471 157.603 111.395C 160.018 99.3177 163.813 89.0955 168.989 80.728C 174.165 72.3605 180.85 65.9771 189.045 61.5776C 197.24 57.092 207.161 54.8491 218.806 54.8491C 229.675 54.8491 239.164 57.0488 247.273 61.4482C 255.382 65.8477 262.153 72.2311 267.588 80.5986C 273.022 88.9661 277.077 99.1883 279.751 111.265C 282.425 123.342 283.762 137.058 283.762 152.413ZM 193.962 152.413C 193.962 173.978 195.817 190.196 199.526 201.065C 203.236 211.934 209.662 217.369 218.806 217.369C 227.778 217.369 234.204 211.977 238.086 201.194C 242.054 190.411 244.038 174.151 244.038 152.413C 244.038 130.761 242.054 114.5 238.086 103.631C 234.204 92.6755 227.778 87.1978 218.806 87.1978C 214.234 87.1978 210.352 88.578 207.161 91.3384C 204.055 94.0988 201.51 98.1963 199.526 103.631C 197.542 109.065 196.119 115.88 195.256 124.075C 194.394 132.184 193.962 141.63 193.962 152.413ZM 397.629 247L 357.646 247L 357.646 137.532C 357.646 135.289 357.646 132.615 357.646 129.51C 357.733 126.318 357.819 123.04 357.905 119.676C 358.078 116.225 358.207 112.775 358.293 109.324C 358.466 105.874 358.595 102.725 358.682 99.8784C 358.25 100.396 357.517 101.172 356.482 102.208C 355.447 103.243 354.282 104.407 352.988 105.701C 351.694 106.909 350.357 108.16 348.977 109.454C 347.597 110.748 346.26 111.912 344.966 112.947L 323.228 130.416L 303.818 106.348L 364.763 57.8252L 397.629 57.8252L 397.629 247Z"/>
</defs>
</svg>
